# xmcd
#
# Track frame offsets:
#   150
#   14031
#   28185
#   42764
#   56649
#   67617
#   78005
#   90448
#   106968
#   119258
#   131223
#   142114
#   156350
#   171262
#   183396
#   197387
#   208878
#   220835
#   234393
#   248609
#   265155
#   281078
#   294883
#   309387
#   325396
#
# Disc length: 4579 seconds
#
# Revision: 0
# Processed by: cddbd v1.5.2PL0 Copyright (c) Steve Scherf et al.
# Submitted via: uFREEDB ActiveX Control 1.5
#
DISCID=6711e119
DTITLE=West Atlantida - Onde as raízes são a essencia da noite
DYEAR=2011
DGENRE=Folk
TTITLE0=01-Amo noite e dia
TTITLE1=02-Fugidinha
TTITLE2=03-Delegada
TTITLE3=04-Caixinha de surpresas
TTITLE4=05-Ah tá
TTITLE5=06-E daí
TTITLE6=07-Casa das prima
TTITLE7=08-Zuar e beber
TTITLE8=09-Só saio com as top
TTITLE9=10-Tá se achando
TTITLE10=11-Safada, bandida
TTITLE11=12-É problema meu
TTITLE12=13-Pare! Perigo!
TTITLE13=14-Pega a senha
TTITLE14=15-Pode pegá
TTITLE15=16-Ei, psiu, beijo me liga
TTITLE16=17-Imploro
TTITLE17=18-Tema diferente
TTITLE18=19-Me ame do jeito que sou
TTITLE19=20-Sereia
TTITLE20=21-O que tem que ser será
TTITLE21=22-Amanhã sei lá
TTITLE22=23-Só falta você
TTITLE23=24-Você não sabe o que é o amor
TTITLE24=25-Madri
EXTD=
EXTT0=
EXTT1=
EXTT2=
EXTT3=
EXTT4=
EXTT5=
EXTT6=
EXTT7=
EXTT8=
EXTT9=
EXTT10=
EXTT11=
EXTT12=
EXTT13=
EXTT14=
EXTT15=
EXTT16=
EXTT17=
EXTT18=
EXTT19=
EXTT20=
EXTT21=
EXTT22=
EXTT23=
EXTT24=
PLAYORDER=
